<?xml version="1.0" encoding="UTF-8"?>
<svg id="Layer_1" data-name="Layer 1" xmlns="http://www.w3.org/2000/svg" viewBox="0 0 166.06 173.55">
  <defs>
    <style>
      .cls-1 {
        fill: #010101;
      }

      .cls-1, .cls-2 {
        stroke-width: 0px;
      }

      .cls-2 {
        fill: #fff;
      }
    </style>
  </defs>
  <g id="g72">
    <path id="path70" class="cls-1" d="M166.06,103.44v10.95h-10.51l-16.08,13.75h-4.63c-7.87,0-14.91,4.38-15.61,11.81,0,.43,0-.11,0,.32,0,5.32,2.64,10.02,6.67,12.89l17.51,8.91c1.23,1.44,1.12,2.61,1.12,2.61v8.87h-19.31l-2.97-3.13h-50.34l-2.97,3.13h-19.31v-8.87s-.11-1.17,1.12-2.61l16.54-8.96h0c3.63-2.06,6.08-5.96,6.08-10.43,0-8.29-7.38-12.08-15.67-12.08h-7.59s0-3.98,0-3.98C8.28,126.22.27,102.65.27,102.65c-.17-.26-.27-.56-.27-.89,0-.88.72-1.6,1.6-1.6.07,0,16.9.07,16.9.07h19.79v-2.73h12.05s0-4.94,0-4.94l99.98.14,15.74,10.74Z"/>
  </g>
  <path class="cls-1" d="M60.23,60.14v10.85h-1.71c-1.9,0-3.47,1.59-3.47,3.55v14.45c0,1.96,1.57,3.55,3.47,3.55h35.62c1.9,0,3.47-1.59,3.47-3.55v-14.45c0-1.96-1.57-3.55-3.47-3.55h-5.55s0-14.78,0-14.78h0c9.44.98,23.03,2.29,31.31,2.29,13,0,39.96-3.09,39.96-3.09,1.94-.23,3.47-1.96,3.47-3.93v-16.23c0-1.96-1.57-3.6-3.52-3.65,0,0-26.73-.8-39.92-.8-8.19,0-21.83,1.54-31.31,2.81V4.34c0-.98-.74-2.06-1.62-2.39l-4.81-1.82c-.88-.33-2.13,0-2.78.7,0,0-19.15,21.75-19.15,28.95v1.73h-2.54c-1.9,0-3.47,1.59-3.47,3.55v21.52c0,1.96,1.57,3.55,3.47,3.55h2.54Z"/>
  <g>
    <path class="cls-2" d="M86.36,121.46v-2.81c.51.43,1.06.75,1.66.96s1.2.32,1.81.32c.36,0,.67-.03.94-.1s.49-.15.67-.27.31-.25.4-.4.13-.32.13-.5c0-.25-.07-.47-.21-.66s-.33-.37-.58-.54-.53-.32-.87-.47-.69-.31-1.08-.47c-.98-.41-1.72-.91-2.2-1.5s-.73-1.31-.73-2.14c0-.66.13-1.22.4-1.69s.62-.86,1.08-1.16.98-.53,1.58-.67,1.23-.21,1.9-.21,1.24.04,1.74.12.97.2,1.4.37v2.63c-.21-.15-.44-.28-.69-.39s-.51-.2-.77-.28-.53-.13-.79-.16-.51-.05-.74-.05c-.32,0-.62.03-.88.09s-.49.15-.67.26-.32.24-.42.4-.15.33-.15.52c0,.21.06.4.17.57s.27.33.47.47.45.3.75.44.62.29.99.44c.5.21.96.43,1.36.67s.75.51,1.03.8.51.64.66,1.02.23.83.23,1.34c0,.7-.13,1.29-.4,1.77s-.63.86-1.09,1.16-.99.51-1.6.64-1.25.19-1.92.19-1.35-.06-1.97-.18-1.16-.29-1.62-.53Z"/>
    <path class="cls-2" d="M98,122.17c-.46,0-.84-.14-1.14-.42s-.46-.63-.46-1.04.16-.77.47-1.04.7-.4,1.17-.4.86.14,1.16.41.45.62.45,1.03-.15.78-.46,1.05-.71.41-1.2.41Z"/>
    <path class="cls-2" d="M109.19,111.65h-4.45v3.09h4.09v2.3h-4.09v4.9h-2.84v-12.6h7.29v2.31Z"/>
  </g>
</svg>